<?xml version="1.0" encoding="utf-8"?>
<!-- Generator: Adobe Illustrator 15.0.0, SVG Export Plug-In . SVG Version: 6.00 Build 0)  -->
<!DOCTYPE svg PUBLIC "-//W3C//DTD SVG 1.1//EN" "http://www.w3.org/Graphics/SVG/1.1/DTD/svg11.dtd">
<svg version="1.1" id="Layer_1" xmlns="http://www.w3.org/2000/svg" xmlns:xlink="http://www.w3.org/1999/xlink" x="0px" y="0px"
	 width="1280px" height="720px" viewBox="0 0 1280 720" enable-background="new 0 0 1280 720" xml:space="preserve">
<rect x="437.936" y="321.59" fill="none" width="405.128" height="111.111"/>
<text transform="matrix(1 0 0 1 437.936 372.709)" font-family="'MyriadPro-Regular'" font-size="72">hero image</text>
<rect x="83" y="617.833" fill="none" stroke="#000000" stroke-width="3" stroke-miterlimit="10" width="614" height="95.667"/>
<rect x="980" y="617.833" fill="none" stroke="#000000" stroke-width="3" stroke-miterlimit="10" width="229" height="44.667"/>
<rect x="980" y="668.833" fill="none" stroke="#000000" stroke-width="3" stroke-miterlimit="10" width="229" height="44.667"/>
<rect x="727" y="617.833" fill="none" stroke="#000000" stroke-width="3" stroke-miterlimit="10" width="229" height="44.667"/>
<rect x="727" y="668.833" fill="none" stroke="#000000" stroke-width="3" stroke-miterlimit="10" width="229" height="44.667"/>
<rect x="155" y="642" fill="none" width="511" height="54"/>
<text transform="matrix(1 0 0 1 351.7134 693.1191)" font-family="'MyriadPro-Regular'" font-size="72">title</text>
<rect x="728.564" y="675.333" fill="none" width="229" height="44.667"/>
<text transform="matrix(1 0 0 1 815.7412 700.8926)" font-family="'MyriadPro-Regular'" font-size="36">nav</text>
<rect x="727" y="624.333" fill="none" width="229" height="44.667"/>
<text transform="matrix(1 0 0 1 814.1768 649.8926)" font-family="'MyriadPro-Regular'" font-size="36">nav</text>
<rect x="980" y="624.333" fill="none" width="229" height="44.667"/>
<text transform="matrix(1 0 0 1 1067.1768 649.8926)" font-family="'MyriadPro-Regular'" font-size="36">nav</text>
<rect x="980" y="675.333" fill="none" width="229" height="44.667"/>
<text transform="matrix(1 0 0 1 1067.1768 700.8926)" font-family="'MyriadPro-Regular'" font-size="36">nav</text>
</svg>
